ply
format ascii 1.0
comment VCGLIB generated
element vertex 8
property float x
property float y
property float z
property uchar red
property uchar green
property uchar blue
property uchar alpha
element face 12
property list uchar int vertex_indices
end_header
0.25 0.05 0.05 255 0 0 255
0.25 0.05 -0.05 255 255 0 255
0.25 -0.05 -0.05 255 0 255 255
0.25 -0.05 0.05 0 255 0 255
0.15 0.05 0.05 0 0 255 255
0.15 0.05 -0.05 0 255 255 255
0.15 -0.05 -0.05 0 255 255 255
0.15 -0.05 0.05 0 0 0 255
3 0 3 1
3 1 3 2
3 4 5 7
3 7 5 6
3 0 4 3
3 3 4 7
3 1 2 5
3 2 6 5
3 1 2 5
3 1 5 4
3 3 7 6
3 3 6 2
